<svg viewBox="0 0 40 40" stroke="currentColor" aria-hidden="true" fill="none" stroke-width="2"
   xmlns="http://www.w3.org/2000/svg"
   >
  <defs
     id="defs181" />
  <g
     id="g183">
    <path
       style="stroke-width:0.131639"
       d="M 19.334313,29.318353 18.730231,28.762615 17.167277,27.380397 15.604327,25.99818 14.151265,24.69158 12.698208,23.384986 11.31599,22.112407 9.933774,20.839833 9.407214,20.38385 8.880656,19.927868 6.9718793,18.230522 5.063103,16.533177 4.2732644,15.791084 3.4834266,15.048987 2.4034803,14.689742 1.323534,14.330494 1.261284,14.108909 1.199034,13.887324 0.9129456,12.134312 0.6268621,10.381301 l 0.059071,-0.05907 0.059071,-0.05907 9.5308759,3.239795 9.530879,3.239794 0.26328,3.95e-4 0.26328,3.95e-4 9.530927,-3.240141 9.530929,-3.240142 0.06534,0.06534 0.06534,0.06535 -0.318292,1.943902 -0.318287,1.943907 -1.074356,0.39516 -1.07436,0.395165 -2.667662,2.369515 -2.667666,2.369516 -2.230645,2.032789 -2.230648,2.032795 -3.365063,3.002426 -3.365063,3.002434 -0.137708,-0.0035 -0.137708,-0.0035 -0.604082,-0.555744 z m -1.532138,-9.448376 -0.101657,-0.09179 -4.278291,-1.409084 -4.278292,-1.40909 -0.197459,-0.06251 -0.19746,-0.06251 0.19746,0.186868 0.197459,0.186867 1.974596,1.753476 1.974596,1.753476 1.579677,1.459003 1.579678,1.458999 0.789838,0.709156 0.789839,0.709161 0.03585,-2.545114 0.03585,-2.545114 z m 6.630352,3.297948 1.819845,-1.645496 0.923843,-0.855957 0.923844,-0.855961 1.612586,-1.436383 1.612587,-1.436387 v -0.03067 -0.03067 l -4.508661,1.493676 -4.508661,1.493682 -0.03572,2.581683 -0.03572,2.581679 0.188105,-0.106843 0.188108,-0.106844 z"
       id="path191" />
  </g>
</svg>
